# xmcd
#
# Track frame offsets:
#	150
#	15541
#	27706
#	40035
#	58554
#	70465
#	82310
#	95161
#	110841
#	125822
#	142732
#	160268
#	176964
#	196350
#
# Disc length: 2925 seconds
#
# Revision: 0
# Processed by: cddbd v1.5.1PL2 Copyright (c) Steve Scherf et al.
# Submitted via: dBpowerAMP V4.0
#
DISCID=d30b6b0e
DTITLE=Kenny Rogers - Through The Years
DYEAR=2004
DGENRE=Country
TTITLE0=The Greatest
TTITLE1=Buy Me A Rose
TTITLE2=He Will, She Knows
TTITLE3=She Rides Wild Horses
TTITLE4=Lady
TTITLE5=Through The Years
TTITLE6=The Wind  Beneath My Wings
TTITLE7=Crazy
TTITLE8=She Believes In Me
TTITLE9=You Are So Beautiful
TTITLE10=Mary, Did You Know
TTITLE11=Always And Forever
TTITLE12=Evergreen
TTITLE13=I Swear
EXTD=Kenny Rogers\nThrough the years
EXTT0=
EXTT1=
EXTT2=
EXTT3=
EXTT4=
EXTT5=
EXTT6=
EXTT7=
EXTT8=
EXTT9=
EXTT10=
EXTT11=
EXTT12=
EXTT13=
PLAYORDER=
